<?xml version="1.0" encoding="utf-8"?>
<!-- Generator: Adobe Illustrator 21.0.2, SVG Export Plug-In . SVG Version: 6.00 Build 0)  -->
<svg version="1.1" id="Layer_1" xmlns="http://www.w3.org/2000/svg" xmlns:xlink="http://www.w3.org/1999/xlink" x="0px" y="0px"
	 viewBox="0 0 315.6 79.4" style="enable-background:new 0 0 315.6 79.4;" xml:space="preserve">
<style type="text/css">
	.st0{fill:#FFFFFF;}
</style>
<g>
	<g>
		<path class="st0" d="M254.8,16.9c-3.2-1.5-7.1-0.3-8.9,2.8c-1.9,3.3-0.8,7.6,2.5,9.5c0.3,0.2,0.7,0.3,1,0.5l16.7,7l0,0
			c1.5,0.6,3.6-0.4,4.7-2.5c0.8-1.5,1-3.1,0.6-4.2c-0.2-0.5-0.4-0.8-0.8-1.1l-0.1-0.1l-14.3-10.9c-0.1-0.1-0.3-0.2-0.4-0.3
			c-0.2-0.1-0.3-0.2-0.5-0.3C255.2,17.1,255,17,254.8,16.9z M253.5,20.7l14.4,9.3c1.1,0.7,1.6,2.1,1,3.1s-2.1,1.3-3.3,0.6l0,0
			l-15.1-7.8l0,0c0,0-0.1,0-0.1-0.1c-1.4-0.8-1.9-2.7-1.1-4.1c0.8-1.4,2.7-1.9,4.1-1.1C253.4,20.6,253.5,20.6,253.5,20.7L253.5,20.7
			L253.5,20.7C253.5,20.6,253.5,20.7,253.5,20.7z"/>
		<path class="st0" d="M247.8,50.4c-2.9,2-3.8,6-2,9.1c1.9,3.3,6.2,4.5,9.5,2.5c0.3-0.2,0.6-0.4,0.9-0.6l14.4-11l0,0
			c1.3-1,1.4-3.3,0.2-5.4c-0.8-1.5-2.1-2.4-3.3-2.6c-0.5-0.1-0.9-0.1-1.3,0.1h-0.1l-16.6,7c-0.2,0.1-0.3,0.1-0.5,0.2
			c-0.2,0.1-0.4,0.2-0.5,0.3C248.2,50.1,248,50.3,247.8,50.4z M250.5,53.4l15.2-7.8c1.2-0.6,2.6-0.3,3.2,0.7s0.1,2.5-1.1,3.2l0,0
			l-14.3,9.2l0,0c0,0-0.1,0-0.1,0.1c-1.4,0.8-3.3,0.3-4.1-1.1s-0.3-3.3,1.1-4.1C250.4,53.4,250.4,53.4,250.5,53.4L250.5,53.4
			L250.5,53.4L250.5,53.4z"/>
		<path class="st0" d="M273.3,73.1c0.3,3.5,3.3,6.3,6.9,6.3c3.8,0,6.9-3.1,6.9-6.9c0-0.4,0-0.7-0.1-1.1l-2.3-17.9l0,0
			c-0.2-1.6-2.2-2.9-4.6-2.9c-1.7,0-3.2,0.6-4,1.6c-0.3,0.4-0.5,0.8-0.6,1.2v0.1l-2.3,17.9c0,0.2-0.1,0.4-0.1,0.5c0,0.2,0,0.4,0,0.6
			C273.3,72.7,273.3,72.9,273.3,73.1z M277.2,72.3l0.8-17.1c0-1.4,1-2.4,2.2-2.4s2.2,1.1,2.2,2.5l0,0l0.8,17l0,0v0.1
			c0,1.7-1.4,3-3,3C278.5,75.4,277.2,74,277.2,72.3C277.2,72.4,277.2,72.4,277.2,72.3L277.2,72.3L277.2,72.3L277.2,72.3z"/>
		<path class="st0" d="M305.8,62.4c3.2,1.5,7.1,0.3,8.9-2.8c1.9-3.3,0.8-7.6-2.5-9.5c-0.3-0.2-0.7-0.3-1-0.5l-16.7-7l0,0
			c-1.5-0.6-3.6,0.4-4.7,2.5c-0.8,1.5-1,3.1-0.6,4.2c0.2,0.5,0.4,0.8,0.8,1.1l0.1,0.1l14.3,10.9c0.1,0.1,0.3,0.2,0.4,0.3
			c0.2,0.1,0.3,0.2,0.5,0.3C305.4,62.2,305.6,62.3,305.8,62.4z M307,58.6l-14.4-9.3c-1.1-0.7-1.6-2.1-1-3.1s2.1-1.3,3.3-0.6l0,0
			l15.1,7.8l0,0c0,0,0.1,0,0.1,0.1c1.4,0.8,1.9,2.7,1.1,4.1s-2.7,1.9-4.1,1.1C307.1,58.7,307,58.7,307,58.6L307,58.6L307,58.6
			C307,58.7,307,58.7,307,58.6z"/>
		<path class="st0" d="M312.7,29c2.9-2,3.8-6,2-9.1c-1.9-3.3-6.2-4.5-9.5-2.5c-0.3,0.2-0.6,0.4-0.9,0.6l-14.4,11l0,0
			c-1.3,1-1.4,3.3-0.2,5.4c0.8,1.5,2.1,2.4,3.3,2.6c0.5,0.1,0.9,0.1,1.3-0.1h0.1l16.6-7c0.2-0.1,0.3-0.1,0.5-0.2s0.4-0.2,0.5-0.3
			C312.3,29.2,312.5,29.1,312.7,29z M310,26l-15.2,7.8c-1.2,0.6-2.6,0.3-3.2-0.7s-0.1-2.5,1.1-3.2l0,0l14.3-9.2l0,0
			c0,0,0.1,0,0.1-0.1c1.4-0.8,3.3-0.3,4.1,1.1s0.3,3.3-1.1,4.1C310.1,26,310.1,26,310,26L310,26L310,26C310.1,26,310,26,310,26z"/>
		<path class="st0" d="M287.2,6.3c-0.3-3.5-3.3-6.3-6.9-6.3c-3.8,0-6.9,3.1-6.9,6.9c0,0.4,0,0.7,0.1,1.1l2.3,17.9l0,0
			c0.2,1.6,2.2,2.9,4.6,2.9c1.7,0,3.2-0.6,4-1.6c0.3-0.4,0.5-0.8,0.6-1.2v-0.1L287.3,8c0-0.2,0.1-0.4,0.1-0.5c0-0.2,0-0.4,0-0.6
			C287.2,6.7,287.2,6.5,287.2,6.3z M283.3,7.1l-0.8,17.1c0,1.4-1,2.4-2.2,2.4s-2.2-1.1-2.2-2.5l0,0l-0.8-17l0,0V7c0-1.7,1.3-3,3-3
			S283.3,5.4,283.3,7.1C283.3,7,283.3,7,283.3,7.1L283.3,7.1L283.3,7.1L283.3,7.1z"/>
	</g>
	<g>
		<path class="st0" d="M3.5,22.2h7l7.1,26.7l6.9-26.7H35v35h-6.7V28.9l-7.2,28.3h-7.3L6.6,28.9v28.3h-6.7V25.9
			C-0.1,23.9,1.5,22.2,3.5,22.2z"/>
		<path class="st0" d="M42,25.9c0-2.5,1.2-3.8,3.6-3.8h3.6v35H42V25.9z"/>
		<path class="st0" d="M79.1,40.4c1.5,0.5,2.6,1.3,3.3,2.4c0.6,1.2,0.9,2.9,1.1,5.2l0.3,6.9c0.1,1.1,0.5,1.9,1.1,2.3H77
			c-0.4-0.7-0.5-1.4-0.6-2.1c-0.2-0.5-0.3-2.5-0.3-5.9c-0.3-4.2-1-5.6-5.3-5.6h-7.6v13.6H56V25.9c0-2,1.6-3.8,3.6-3.8H73
			c7.3,0,11.3,2.8,11.3,10C84.3,36.6,82.4,39.5,79.1,40.4z M72.2,28.3h-8.9v9.2h8.4c3.4,0,5.3-1.2,5.3-4.6
			C77.1,29.7,75.4,28.3,72.2,28.3z"/>
		<path class="st0" d="M110.8,22.2l12.6,35h-7.6l-2.3-7.2H99.9l-2.3,7.2h-7.7l11.7-32.7c0.5-1.5,1.6-2.3,3.4-2.3H110.8L110.8,22.2z
			 M101.8,44.1h9.6l-4.8-14.9L101.8,44.1z"/>
		<path class="st0" d="M168.9,22.2l-9.9,35h-6.9l-5.4-26.8l-5.5,26.8h-6.9l-10-35h7.5l5.9,24.7l5.2-24.7h7.6l5,24.7l5.3-21.9
			c0.6-1.8,1.8-2.7,3.6-2.7L168.9,22.2L168.9,22.2z"/>
		<path class="st0" d="M190.1,22.2l12.6,35h-7.6l-2.3-7.2h-13.5l-2.3,7.2h-7.7L181,24.5c0.5-1.5,1.6-2.3,3.4-2.3H190.1L190.1,22.2z
			 M181.2,44.1h9.6L186,29.2L181.2,44.1z"/>
		<path class="st0" d="M214.2,57.2V44.1l-12.7-21.9h8.8l7.6,15.1l5.9-13c0.7-1.4,1.8-2.1,3.3-2.1h5.9l-11.5,21.9v13.1
			C221.5,57.2,214.2,57.2,214.2,57.2z"/>
	</g>
	<g>
		<path class="st0" d="M5.4,73.7C5.1,73.8,4.5,74,3.6,74C1.2,74,0,72.5,0,70.5c0-2.4,1.7-3.7,3.8-3.7c0.8,0,1.4,0.2,1.7,0.3
			l-0.3,1.2C4.9,68.2,4.4,68,3.9,68c-1.2,0-2.2,0.8-2.2,2.3c0,1.4,0.8,2.3,2.2,2.3c0.5,0,1-0.1,1.3-0.2L5.4,73.7z"/>
		<path class="st0" d="M13.3,67c0.5-0.1,1.2-0.2,2.1-0.2c1,0,1.8,0.2,2.3,0.6c0.4,0.3,0.6,0.8,0.6,1.5c0,0.9-0.6,1.5-1.2,1.7l0,0
			c0.5,0.2,0.8,0.6,0.9,1.3c0.2,0.8,0.4,1.7,0.6,2H17c-0.1-0.2-0.3-0.8-0.5-1.6c-0.2-0.9-0.5-1.1-1.1-1.1h-0.5v2.7h-1.6L13.3,67
			L13.3,67z M14.8,70h0.6c0.8,0,1.2-0.4,1.2-1s-0.4-1-1.2-1c-0.4,0-0.6,0-0.7,0.1L14.8,70L14.8,70z"/>
		<path class="st0" d="M30.3,70.9h-2.6v1.7h2.9v1.3h-4.4v-7h4.3v1.3h-2.7v1.4h2.6L30.3,70.9L30.3,70.9z"/>
		<path class="st0" d="M40.1,72.1l-0.5,1.8H38l2.1-7h2.1l2.2,7h-1.7l-0.5-1.8H40.1z M41.9,70.9l-0.4-1.5c-0.1-0.4-0.2-0.9-0.3-1.3
			l0,0c-0.1,0.4-0.2,0.9-0.3,1.3l-0.4,1.5H41.9z"/>
		<path class="st0" d="M52.5,68.2h-1.9v-1.3H56v1.3h-1.9v5.6h-1.6V68.2L52.5,68.2z"/>
		<path class="st0" d="M65.2,66.9v7h-1.6v-7H65.2z"/>
		<path class="st0" d="M75.1,73.9l-2.2-7h1.7l0.8,2.9c0.2,0.8,0.5,1.6,0.6,2.5l0,0c0.2-0.8,0.4-1.7,0.6-2.5l0.9-3h1.7l-2.3,7
			L75.1,73.9L75.1,73.9z"/>
		<path class="st0" d="M90.9,70.9h-2.6v1.7h2.9v1.3h-4.4v-7h4.3v1.3h-2.7v1.4H91L90.9,70.9C91,70.9,90.9,70.9,90.9,70.9z"/>
		<path class="st0" d="M109,68.2h-1.9v-1.3h5.3v1.3h-1.9v5.6H109V68.2z"/>
		<path class="st0" d="M124.2,70.9h-2.6v1.7h2.9v1.3h-4.4v-7h4.3v1.3h-2.7v1.4h2.6L124.2,70.9L124.2,70.9z"/>
		<path class="st0" d="M137.5,73.7c-0.3,0.1-0.9,0.3-1.8,0.3c-2.4,0-3.6-1.5-3.6-3.5c0-2.4,1.7-3.7,3.8-3.7c0.8,0,1.4,0.2,1.7,0.3
			l-0.3,1.2c-0.3-0.1-0.8-0.3-1.3-0.3c-1.2,0-2.2,0.8-2.2,2.3c0,1.4,0.8,2.3,2.2,2.3c0.5,0,1-0.1,1.3-0.2L137.5,73.7z"/>
		<path class="st0" d="M146.9,66.9v2.7h2.6v-2.7h1.6v7h-1.6V71h-2.6v2.9h-1.6v-7H146.9z"/>
		<path class="st0" d="M159.3,73.9v-7h1.8l1.4,2.5c0.4,0.7,0.8,1.6,1.1,2.4l0,0c-0.1-0.9-0.1-1.9-0.1-2.9v-2h1.4v7h-1.7l-1.5-2.7
			c-0.4-0.8-0.9-1.6-1.2-2.5l0,0c0.1,0.9,0.1,1.9,0.1,3v2.1L159.3,73.9L159.3,73.9z"/>
		<path class="st0" d="M176.2,74c-2.1,0-3.3-1.6-3.3-3.5c0-2.1,1.3-3.6,3.4-3.6c2.1,0,3.3,1.6,3.3,3.5C179.6,72.6,178.2,74,176.2,74
			L176.2,74z M176.3,72.7c1.1,0,1.7-1,1.7-2.4c0-1.2-0.6-2.3-1.7-2.3c-1.1,0-1.7,1.1-1.7,2.4S175.2,72.7,176.3,72.7L176.3,72.7
			L176.3,72.7z"/>
		<path class="st0" d="M187.5,66.9h1.6v5.6h2.8v1.3h-4.3v-6.9H187.5z"/>
		<path class="st0" d="M202.1,74c-2.1,0-3.3-1.6-3.3-3.5c0-2.1,1.3-3.6,3.4-3.6c2.1,0,3.3,1.6,3.3,3.5C205.5,72.6,204.1,74,202.1,74
			L202.1,74z M202.2,72.7c1.1,0,1.7-1,1.7-2.4c0-1.2-0.6-2.3-1.7-2.3c-1.1,0-1.7,1.1-1.7,2.4S201.1,72.7,202.2,72.7L202.2,72.7
			L202.2,72.7z"/>
		<path class="st0" d="M219.2,73.5c-0.5,0.2-1.4,0.4-2.3,0.4c-1.3,0-2.2-0.3-2.8-0.9s-1-1.5-1-2.5c0-2.3,1.7-3.6,4-3.6
			c0.9,0,1.6,0.2,1.9,0.3l-0.3,1.3c-0.4-0.2-0.8-0.3-1.6-0.3c-1.3,0-2.3,0.7-2.3,2.3c0,1.4,0.9,2.3,2.2,2.3c0.4,0,0.6,0,0.8-0.1
			v-1.5h-1.1V70h2.6L219.2,73.5L219.2,73.5z"/>
		<path class="st0" d="M228.8,73.9V71l-2.2-4.1h1.8l0.7,1.7c0.2,0.5,0.4,0.9,0.5,1.3l0,0c0.2-0.4,0.3-0.8,0.5-1.3l0.7-1.7h1.8
			l-2.3,4.1v2.9H228.8z"/>
	</g>
</g>
</svg>
